<mxfile host="app.diagrams.net" modified="2022-08-23T23:37:43.115Z" agent="5.0 (Windows NT 10.0; Win64; x64) AppleWebKit/537.36 (KHTML, like Gecko) Chrome/93.0.4577.63 Safari/537.36" etag="ODQdqiC2s47iJAs7jnyu" version="20.2.7" type="github">
  <diagram id="MFmJ76mGuhEa4MSUdMsl" name="Página-1">
    <mxGraphModel dx="1929" dy="614" grid="1" gridSize="10" guides="1" tooltips="1" connect="1" arrows="1" fold="1" page="1" pageScale="1" pageWidth="827" pageHeight="1169" math="0" shadow="0">
      <root>
        <mxCell id="0" />
        <mxCell id="1" parent="0" />
        <mxCell id="Fb-2rY4CRzXmfQh4OBCO-1" value="Actor" style="shape=umlActor;verticalLabelPosition=bottom;verticalAlign=top;html=1;outlineConnect=0;" vertex="1" parent="1">
          <mxGeometry x="110" y="70" width="30" height="60" as="geometry" />
        </mxCell>
        <mxCell id="Fb-2rY4CRzXmfQh4OBCO-2" value="Cliente" style="text;html=1;strokeColor=none;fillColor=none;align=center;verticalAlign=middle;whiteSpace=wrap;rounded=0;" vertex="1" parent="1">
          <mxGeometry x="95" y="30" width="60" height="30" as="geometry" />
        </mxCell>
        <mxCell id="Fb-2rY4CRzXmfQh4OBCO-3" value="Actor" style="shape=umlActor;verticalLabelPosition=bottom;verticalAlign=top;html=1;outlineConnect=0;" vertex="1" parent="1">
          <mxGeometry x="270" y="70" width="30" height="60" as="geometry" />
        </mxCell>
        <mxCell id="Fb-2rY4CRzXmfQh4OBCO-4" value="Analista de Sistemas" style="text;html=1;strokeColor=none;fillColor=none;align=center;verticalAlign=middle;whiteSpace=wrap;rounded=0;" vertex="1" parent="1">
          <mxGeometry x="235" y="30" width="100" height="30" as="geometry" />
        </mxCell>
        <mxCell id="Fb-2rY4CRzXmfQh4OBCO-5" value="" style="endArrow=classic;startArrow=classic;html=1;rounded=0;" edge="1" parent="1">
          <mxGeometry width="50" height="50" relative="1" as="geometry">
            <mxPoint x="160" y="100" as="sourcePoint" />
            <mxPoint x="250" y="100" as="targetPoint" />
          </mxGeometry>
        </mxCell>
        <mxCell id="Fb-2rY4CRzXmfQh4OBCO-6" value="" style="endArrow=classic;html=1;rounded=0;" edge="1" parent="1">
          <mxGeometry width="50" height="50" relative="1" as="geometry">
            <mxPoint x="200" y="100" as="sourcePoint" />
            <mxPoint x="200" y="160" as="targetPoint" />
          </mxGeometry>
        </mxCell>
        <mxCell id="Fb-2rY4CRzXmfQh4OBCO-7" value="Levantamento de Requisitos" style="text;html=1;strokeColor=none;fillColor=none;align=center;verticalAlign=middle;whiteSpace=wrap;rounded=0;" vertex="1" parent="1">
          <mxGeometry x="160" y="170" width="80" height="30" as="geometry" />
        </mxCell>
        <mxCell id="Fb-2rY4CRzXmfQh4OBCO-8" value="Actor" style="shape=umlActor;verticalLabelPosition=bottom;verticalAlign=top;html=1;outlineConnect=0;" vertex="1" parent="1">
          <mxGeometry x="440" y="70" width="30" height="60" as="geometry" />
        </mxCell>
        <mxCell id="Fb-2rY4CRzXmfQh4OBCO-9" value="Actor" style="shape=umlActor;verticalLabelPosition=bottom;verticalAlign=top;html=1;outlineConnect=0;" vertex="1" parent="1">
          <mxGeometry x="500" y="70" width="30" height="60" as="geometry" />
        </mxCell>
        <mxCell id="Fb-2rY4CRzXmfQh4OBCO-10" value="Actor" style="shape=umlActor;verticalLabelPosition=bottom;verticalAlign=top;html=1;outlineConnect=0;" vertex="1" parent="1">
          <mxGeometry x="550" y="70" width="30" height="60" as="geometry" />
        </mxCell>
        <mxCell id="Fb-2rY4CRzXmfQh4OBCO-11" value="" style="endArrow=classic;startArrow=classic;html=1;rounded=0;" edge="1" parent="1">
          <mxGeometry width="50" height="50" relative="1" as="geometry">
            <mxPoint x="320" y="100" as="sourcePoint" />
            <mxPoint x="420" y="100" as="targetPoint" />
          </mxGeometry>
        </mxCell>
        <mxCell id="Fb-2rY4CRzXmfQh4OBCO-12" value="Equipe de Desenvolvimento" style="text;html=1;strokeColor=none;fillColor=none;align=center;verticalAlign=middle;whiteSpace=wrap;rounded=0;" vertex="1" parent="1">
          <mxGeometry x="480" y="30" width="70" height="30" as="geometry" />
        </mxCell>
        <mxCell id="Fb-2rY4CRzXmfQh4OBCO-13" value="Actor" style="shape=umlActor;verticalLabelPosition=bottom;verticalAlign=top;html=1;outlineConnect=0;" vertex="1" parent="1">
          <mxGeometry x="10" y="70" width="30" height="60" as="geometry" />
        </mxCell>
        <mxCell id="Fb-2rY4CRzXmfQh4OBCO-14" value="Stakeholder&lt;br&gt;(Funcionários)" style="text;html=1;strokeColor=none;fillColor=none;align=center;verticalAlign=middle;whiteSpace=wrap;rounded=0;" vertex="1" parent="1">
          <mxGeometry x="-15" y="160" width="80" height="30" as="geometry" />
        </mxCell>
        <mxCell id="Fb-2rY4CRzXmfQh4OBCO-16" value="" style="ellipse;whiteSpace=wrap;html=1;strokeColor=#b85450;strokeWidth=3;fillColor=#f8cecc;" vertex="1" parent="1">
          <mxGeometry x="-110" y="250" width="110" height="40" as="geometry" />
        </mxCell>
        <mxCell id="Fb-2rY4CRzXmfQh4OBCO-17" value="Análise" style="text;html=1;strokeColor=none;fillColor=none;align=center;verticalAlign=middle;whiteSpace=wrap;rounded=0;" vertex="1" parent="1">
          <mxGeometry x="-90" y="255" width="60" height="30" as="geometry" />
        </mxCell>
        <mxCell id="Fb-2rY4CRzXmfQh4OBCO-18" value="" style="ellipse;whiteSpace=wrap;html=1;strokeColor=#6c8ebf;strokeWidth=3;fillColor=#dae8fc;" vertex="1" parent="1">
          <mxGeometry x="60" y="250" width="110" height="40" as="geometry" />
        </mxCell>
        <mxCell id="Fb-2rY4CRzXmfQh4OBCO-19" value="" style="ellipse;whiteSpace=wrap;html=1;strokeColor=#d6b656;strokeWidth=3;fillColor=#fff2cc;" vertex="1" parent="1">
          <mxGeometry x="230" y="250" width="110" height="40" as="geometry" />
        </mxCell>
        <mxCell id="Fb-2rY4CRzXmfQh4OBCO-20" value="" style="ellipse;whiteSpace=wrap;html=1;strokeColor=#82b366;strokeWidth=3;fillColor=#d5e8d4;" vertex="1" parent="1">
          <mxGeometry x="400" y="250" width="110" height="40" as="geometry" />
        </mxCell>
        <mxCell id="Fb-2rY4CRzXmfQh4OBCO-21" value="" style="ellipse;whiteSpace=wrap;html=1;strokeColor=#00FFFF;strokeWidth=3;fillColor=#b0e3e6;" vertex="1" parent="1">
          <mxGeometry x="570" y="250" width="110" height="40" as="geometry" />
        </mxCell>
        <mxCell id="Fb-2rY4CRzXmfQh4OBCO-22" value="Projeto" style="text;html=1;strokeColor=none;fillColor=none;align=center;verticalAlign=middle;whiteSpace=wrap;rounded=0;" vertex="1" parent="1">
          <mxGeometry x="85" y="255" width="60" height="30" as="geometry" />
        </mxCell>
        <mxCell id="Fb-2rY4CRzXmfQh4OBCO-23" value="Implementação" style="text;html=1;strokeColor=none;fillColor=none;align=center;verticalAlign=middle;whiteSpace=wrap;rounded=0;" vertex="1" parent="1">
          <mxGeometry x="255" y="255" width="60" height="30" as="geometry" />
        </mxCell>
        <mxCell id="Fb-2rY4CRzXmfQh4OBCO-24" value="Testes" style="text;html=1;strokeColor=none;fillColor=none;align=center;verticalAlign=middle;whiteSpace=wrap;rounded=0;" vertex="1" parent="1">
          <mxGeometry x="425" y="255" width="60" height="30" as="geometry" />
        </mxCell>
        <mxCell id="Fb-2rY4CRzXmfQh4OBCO-25" value="Utilização" style="text;html=1;strokeColor=none;fillColor=none;align=center;verticalAlign=middle;whiteSpace=wrap;rounded=0;" vertex="1" parent="1">
          <mxGeometry x="595" y="255" width="60" height="30" as="geometry" />
        </mxCell>
        <mxCell id="Fb-2rY4CRzXmfQh4OBCO-26" value="" style="endArrow=classic;html=1;rounded=0;exitX=1;exitY=0.5;exitDx=0;exitDy=0;entryX=0;entryY=0.5;entryDx=0;entryDy=0;" edge="1" parent="1" source="Fb-2rY4CRzXmfQh4OBCO-16" target="Fb-2rY4CRzXmfQh4OBCO-18">
          <mxGeometry width="50" height="50" relative="1" as="geometry">
            <mxPoint x="390" y="290" as="sourcePoint" />
            <mxPoint x="440" y="240" as="targetPoint" />
          </mxGeometry>
        </mxCell>
        <mxCell id="Fb-2rY4CRzXmfQh4OBCO-27" value="" style="endArrow=classic;html=1;rounded=0;exitX=1;exitY=0.5;exitDx=0;exitDy=0;entryX=0;entryY=0.5;entryDx=0;entryDy=0;" edge="1" parent="1" source="Fb-2rY4CRzXmfQh4OBCO-18" target="Fb-2rY4CRzXmfQh4OBCO-19">
          <mxGeometry width="50" height="50" relative="1" as="geometry">
            <mxPoint x="10" y="280" as="sourcePoint" />
            <mxPoint x="70" y="280" as="targetPoint" />
          </mxGeometry>
        </mxCell>
        <mxCell id="Fb-2rY4CRzXmfQh4OBCO-28" value="" style="endArrow=classic;html=1;rounded=0;exitX=1;exitY=0.5;exitDx=0;exitDy=0;entryX=0;entryY=0.5;entryDx=0;entryDy=0;" edge="1" parent="1" source="Fb-2rY4CRzXmfQh4OBCO-19" target="Fb-2rY4CRzXmfQh4OBCO-20">
          <mxGeometry width="50" height="50" relative="1" as="geometry">
            <mxPoint x="20" y="290" as="sourcePoint" />
            <mxPoint x="80" y="290" as="targetPoint" />
          </mxGeometry>
        </mxCell>
        <mxCell id="Fb-2rY4CRzXmfQh4OBCO-29" value="" style="endArrow=classic;html=1;rounded=0;exitX=1;exitY=0.5;exitDx=0;exitDy=0;entryX=0;entryY=0.5;entryDx=0;entryDy=0;" edge="1" parent="1" source="Fb-2rY4CRzXmfQh4OBCO-20" target="Fb-2rY4CRzXmfQh4OBCO-21">
          <mxGeometry width="50" height="50" relative="1" as="geometry">
            <mxPoint x="30" y="300" as="sourcePoint" />
            <mxPoint x="90" y="300" as="targetPoint" />
          </mxGeometry>
        </mxCell>
        <mxCell id="Fb-2rY4CRzXmfQh4OBCO-30" value="Elicitação" style="whiteSpace=wrap;html=1;rounded=1;arcSize=50;align=center;verticalAlign=middle;strokeWidth=1;autosize=1;spacing=4;treeFolding=1;treeMoving=1;newEdgeStyle={&quot;edgeStyle&quot;:&quot;entityRelationEdgeStyle&quot;,&quot;startArrow&quot;:&quot;none&quot;,&quot;endArrow&quot;:&quot;none&quot;,&quot;segment&quot;:10,&quot;curved&quot;:1};direction=west;" vertex="1" parent="1">
          <mxGeometry x="-76.00000000000001" y="318" width="100" height="30" as="geometry" />
        </mxCell>
        <mxCell id="Fb-2rY4CRzXmfQh4OBCO-31" value="" style="edgeStyle=entityRelationEdgeStyle;startArrow=none;endArrow=none;segment=10;curved=1;rounded=0;exitX=0.5;exitY=1;exitDx=0;exitDy=0;entryX=0.5;entryY=1;entryDx=0;entryDy=0;" edge="1" target="Fb-2rY4CRzXmfQh4OBCO-30" parent="1" source="Fb-2rY4CRzXmfQh4OBCO-16">
          <mxGeometry relative="1" as="geometry">
            <mxPoint x="-640" y="260" as="sourcePoint" />
            <mxPoint x="-70" y="333" as="targetPoint" />
          </mxGeometry>
        </mxCell>
        <mxCell id="Fb-2rY4CRzXmfQh4OBCO-32" value="Especificação" style="whiteSpace=wrap;html=1;rounded=1;arcSize=50;align=center;verticalAlign=middle;strokeWidth=1;autosize=1;spacing=4;treeFolding=1;treeMoving=1;newEdgeStyle={&quot;edgeStyle&quot;:&quot;entityRelationEdgeStyle&quot;,&quot;startArrow&quot;:&quot;none&quot;,&quot;endArrow&quot;:&quot;none&quot;,&quot;segment&quot;:10,&quot;curved&quot;:1};" vertex="1" parent="1">
          <mxGeometry x="-86" y="368" width="120" height="30" as="geometry" />
        </mxCell>
        <mxCell id="Fb-2rY4CRzXmfQh4OBCO-33" value="" style="edgeStyle=entityRelationEdgeStyle;startArrow=none;endArrow=none;segment=10;curved=1;rounded=0;exitX=0;exitY=1;exitDx=0;exitDy=0;" edge="1" target="Fb-2rY4CRzXmfQh4OBCO-32" parent="1" source="Fb-2rY4CRzXmfQh4OBCO-16">
          <mxGeometry relative="1" as="geometry">
            <mxPoint x="-80" y="340" as="sourcePoint" />
          </mxGeometry>
        </mxCell>
        <mxCell id="Fb-2rY4CRzXmfQh4OBCO-34" value="" style="shape=image;html=1;verticalAlign=top;verticalLabelPosition=bottom;labelBackgroundColor=#ffffff;imageAspect=0;aspect=fixed;image=https://cdn0.iconfinder.com/data/icons/phosphor-fill-vol-4/256/spiral-fill-128.png" vertex="1" parent="1">
          <mxGeometry x="240" y="398" width="272" height="272" as="geometry" />
        </mxCell>
        <mxCell id="Fb-2rY4CRzXmfQh4OBCO-35" value="" style="endArrow=none;html=1;rounded=0;exitX=-0.004;exitY=0.066;exitDx=0;exitDy=0;exitPerimeter=0;strokeWidth=3;strokeColor=#FF0000;" edge="1" parent="1" source="Fb-2rY4CRzXmfQh4OBCO-34">
          <mxGeometry width="50" height="50" relative="1" as="geometry">
            <mxPoint x="260" y="490" as="sourcePoint" />
            <mxPoint x="380" y="550" as="targetPoint" />
          </mxGeometry>
        </mxCell>
        <mxCell id="Fb-2rY4CRzXmfQh4OBCO-36" value="" style="endArrow=none;html=1;rounded=0;strokeWidth=3;strokeColor=#0000FF;" edge="1" parent="1">
          <mxGeometry width="50" height="50" relative="1" as="geometry">
            <mxPoint x="380" y="550" as="sourcePoint" />
            <mxPoint x="530" y="420" as="targetPoint" />
          </mxGeometry>
        </mxCell>
        <mxCell id="Fb-2rY4CRzXmfQh4OBCO-37" value="" style="endArrow=none;html=1;rounded=0;strokeWidth=3;exitX=0;exitY=1;exitDx=0;exitDy=0;strokeColor=#00FF00;" edge="1" parent="1" source="Fb-2rY4CRzXmfQh4OBCO-34">
          <mxGeometry width="50" height="50" relative="1" as="geometry">
            <mxPoint x="260" y="490" as="sourcePoint" />
            <mxPoint x="380" y="550" as="targetPoint" />
          </mxGeometry>
        </mxCell>
        <mxCell id="Fb-2rY4CRzXmfQh4OBCO-39" value="" style="endArrow=none;html=1;rounded=0;strokeColor=#FFFF00;strokeWidth=3;exitX=1;exitY=1;exitDx=0;exitDy=0;" edge="1" parent="1" source="Fb-2rY4CRzXmfQh4OBCO-34">
          <mxGeometry width="50" height="50" relative="1" as="geometry">
            <mxPoint x="260" y="490" as="sourcePoint" />
            <mxPoint x="380" y="550" as="targetPoint" />
          </mxGeometry>
        </mxCell>
        <mxCell id="Fb-2rY4CRzXmfQh4OBCO-40" value="" style="endArrow=none;html=1;rounded=0;strokeColor=#00FFFF;strokeWidth=3;exitX=-0.007;exitY=0.551;exitDx=0;exitDy=0;exitPerimeter=0;" edge="1" parent="1" source="Fb-2rY4CRzXmfQh4OBCO-34">
          <mxGeometry width="50" height="50" relative="1" as="geometry">
            <mxPoint x="260" y="490" as="sourcePoint" />
            <mxPoint x="380" y="548" as="targetPoint" />
          </mxGeometry>
        </mxCell>
        <mxCell id="Fb-2rY4CRzXmfQh4OBCO-41" value="&lt;h1&gt;Elicitação&lt;/h1&gt;&lt;p&gt;Ato de reunião e coleta de dados do cliente.&lt;/p&gt;&lt;p&gt;&lt;br&gt;&lt;/p&gt;" style="text;html=1;strokeColor=#b85450;fillColor=#f8cecc;spacing=5;spacingTop=-20;whiteSpace=wrap;overflow=hidden;rounded=0;" vertex="1" parent="1">
          <mxGeometry x="-210" y="510" width="190" height="80" as="geometry" />
        </mxCell>
        <mxCell id="Fb-2rY4CRzXmfQh4OBCO-42" value="&lt;h1&gt;Especificação&lt;/h1&gt;&lt;p&gt;Detalhamento da análise e projeto para abordar mais áreas e correção de possíveis erros.&lt;/p&gt;" style="text;html=1;strokeColor=#b85450;fillColor=#f8cecc;spacing=5;spacingTop=-20;whiteSpace=wrap;overflow=hidden;rounded=0;" vertex="1" parent="1">
          <mxGeometry x="-210" y="610" width="190" height="100" as="geometry" />
        </mxCell>
      </root>
    </mxGraphModel>
  </diagram>
</mxfile>
